<?xml version="1.0" encoding="utf-8"?>
<!-- Generator: Adobe Illustrator 18.0.0, SVG Export Plug-In . SVG Version: 6.00 Build 0)  -->
<!DOCTYPE svg PUBLIC "-//W3C//DTD SVG 1.1//EN" "http://www.w3.org/Graphics/SVG/1.1/DTD/svg11.dtd">
<svg version="1.1" xmlns="http://www.w3.org/2000/svg" xmlns:xlink="http://www.w3.org/1999/xlink" x="0px" y="0px"
	 viewBox="0 0 400 400" enable-background="new 0 0 400 400" xml:space="preserve">
<g id="Layer_1" display="none">
	
		<path display="inline" fill="none" stroke="#C9C9C7" stroke-width="6" stroke-linecap="square" stroke-linejoin="round" stroke-miterlimit="10" d="
		M0,0c0,221.1,178.9,400,400,400"/>
	
		<path display="inline" fill="none" stroke="#C9C9C7" stroke-width="6" stroke-linecap="square" stroke-linejoin="round" stroke-miterlimit="10" d="
		M0,0c0,221.1,178.9,400,400,400"/>
</g>
<g id="Layer_15" display="none">
	
		<path display="inline" fill="none" stroke="#C9C9C7" stroke-width="6" stroke-linecap="square" stroke-linejoin="round" stroke-miterlimit="10" d="
		M400,0C178.9,0,0,178.9,0,400"/>
</g>
<g id="Layer_16" display="none">
	
		<path display="inline" fill="none" stroke="#C9C9C7" stroke-width="6" stroke-linecap="square" stroke-linejoin="round" stroke-miterlimit="10" d="
		M400,400C400,178.9,221.1,0,0,0"/>
</g>
<g id="Layer_2" display="none">
	
		<path display="inline" fill="none" stroke="#C9C9C7" stroke-width="6" stroke-linecap="square" stroke-linejoin="round" stroke-miterlimit="10" d="
		M0,400c221.1,0,400-178.9,400-400"/>
</g>
<g id="Layer_3" display="none">
	
		<path display="inline" fill="none" stroke="#C9C9C7" stroke-width="6" stroke-linecap="square" stroke-linejoin="round" stroke-miterlimit="10" d="
		M200,0c110.5,110.5,110.5,289.5,0,400"/>
</g>
<g id="Layer_4" display="none">
	
		<path display="inline" fill="none" stroke="#C9C9C7" stroke-width="6" stroke-linecap="square" stroke-linejoin="round" stroke-miterlimit="10" d="
		M200,0C89.5,110.5,89.5,289.5,200,400"/>
</g>
<g id="Layer_5" display="none">
	
		<path display="inline" fill="none" stroke="#C9C9C7" stroke-width="6" stroke-linecap="square" stroke-linejoin="round" stroke-miterlimit="10" d="
		M400,200C289.5,89.5,110.5,89.5,0,200"/>
</g>
<g id="Layer_6" display="none">
	
		<path display="inline" fill="none" stroke="#C9C9C7" stroke-width="6" stroke-linecap="square" stroke-linejoin="round" stroke-miterlimit="10" d="
		M0,200c110.5,110.5,289.5,110.5,400,0"/>
</g>
<g id="Layer_7" display="none">
	
		<line display="inline" fill="none" stroke="#C9C9C7" stroke-width="6" stroke-linecap="square" stroke-linejoin="round" stroke-miterlimit="10" x1="200" y1="0" x2="200" y2="400"/>
</g>
<g id="Layer_8" display="none">
	
		<line display="inline" fill="none" stroke="#C9C9C7" stroke-width="6" stroke-linecap="square" stroke-linejoin="round" stroke-miterlimit="10" x1="400" y1="200" x2="0" y2="200"/>
</g>
<g id="Layer_9" display="none">
	<g display="inline">
		<g>
			
				<line fill="none" stroke="#C9C9C7" stroke-width="6" stroke-linecap="square" stroke-linejoin="round" x1="400" y1="200" x2="394" y2="200"/>
			
				<line fill="none" stroke="#C9C9C7" stroke-width="6" stroke-linecap="square" stroke-linejoin="round" stroke-dasharray="11.7576,11.7576" x1="382.2" y1="200" x2="11.9" y2="200"/>
			
				<line fill="none" stroke="#C9C9C7" stroke-width="6" stroke-linecap="square" stroke-linejoin="round" x1="6" y1="200" x2="0" y2="200"/>
		</g>
	</g>
</g>
<g id="Layer_10" display="none">
	<g display="inline">
		<g>
			
				<line fill="none" stroke="#C9C9C7" stroke-width="6" stroke-linecap="square" stroke-linejoin="round" x1="200" y1="400" x2="200" y2="394"/>
			
				<line fill="none" stroke="#C9C9C7" stroke-width="6" stroke-linecap="square" stroke-linejoin="round" stroke-dasharray="11.7576,11.7576" x1="200" y1="382.2" x2="200" y2="11.9"/>
			
				<line fill="none" stroke="#C9C9C7" stroke-width="6" stroke-linecap="square" stroke-linejoin="round" x1="200" y1="6" x2="200" y2="0"/>
		</g>
	</g>
</g>
<g id="Layer_11">
	<path fill="none" stroke="#C9C9C7" stroke-width="6" stroke-linecap="square" stroke-linejoin="round" stroke-miterlimit="10" d="
		M200,0c-5.7,33.2,11.3,65.9,14.3,99.4c1.5,16.6-0.5,33.5-5.9,49.2c-2.8,8.3-6.5,16.4-7.9,25c-1.2,7.6-0.6,15.4-1,23.1
		c-0.8,14.6-5.6,28.9-13.7,41c-5.2,7.8-11.8,14.8-16.5,22.9c-14.1,24.4-7.5,58.7,14.6,76.2c-1.2,10.3,1.3,21,7,29.6
		c2.3,3.5,5.1,6.7,6.5,10.6c2.9,7.9-0.3,17.3,3.3,24.9"/>
</g>
<g id="Layer_12" display="none">
	
		<path display="inline" fill="none" stroke="#C9C9C7" stroke-width="6" stroke-linecap="square" stroke-linejoin="round" stroke-miterlimit="10" d="
		M200,0c11.3,12.1,15.6,27.2,15.1,43.8c-0.3,8.1-2,16.3-0.7,24.3c1.4,8.4,6,15.8,9,23.7c3.7,10.1,4.8,20.9,5.8,31.6
		c1.2,13.2,2.4,26.4,3.7,39.6c1.2,12.7,2.3,25.9-1.9,38c-1.6,4.6-4,9-5.1,13.7c-1,4.4-1,8.9-0.9,13.4c0.2,12.8,0.3,25.6,0.5,38.4
		c0.1,4.8,0.1,9.7-1.1,14.4c-1.8,6.8-6.2,12.6-8.9,19.1c-3.2,7.6-4,15.9-4.9,24c-2.8,27.9-4.8,48.2-7.6,76.1"/>
</g>
<g id="Layer_13" display="none">
	
		<path display="inline" fill="none" stroke="#C9C9C7" stroke-width="6" stroke-linecap="square" stroke-linejoin="round" stroke-miterlimit="10" d="
		M-0.9,197.4c43.8,6.5,82.9-33.7,127.1-32.5c14.9,0.4,29.3,5.6,44.1,7.9c11.1,1.7,22.5,1.7,33.7,3.2c21.8,3,42.5,11.6,64.2,15.4
		c17,3,34.3,2.9,51.6,2.8c15.3-0.1,30.6-0.1,45.7-2.2c13-1.8,29.2-3.8,36.5,7.1"/>
</g>
<g id="Layer_14" display="none">
	
		<path display="inline" fill="none" stroke="#C9C9C7" stroke-width="6" stroke-linecap="square" stroke-linejoin="round" stroke-miterlimit="10" d="
		M399.9,197.1c-15.1,4.8-25,19.1-38.9,26.6c-14,7.7-30.8,7.9-46.8,7.9c-14.7,0-29.4,0.1-44,0.1c-13.8,0-28.4,0.3-40,7.7
		c-4.6,2.9-8.4,6.7-13,9.6c-9.9,6.1-22,7.1-33.6,7.2c-2.7,0-5.6,0-7.9-1.4c-3.1-1.9-4.4-5.8-6.9-8.4c-4.1-4.3-10.7-4.9-16.6-4.7
		c-26.7,0.8-53.7,10.4-79.7,4.2c-20.8-4.9-38-19.2-54.3-33.1c-6-5.1-12-10.2-18-15.3"/>
</g>
</svg>
